<svg width="40" height="36" viewBox="0 0 40 36" fill="none" xmlns="http://www.w3.org/2000/svg">
<path fill-rule="evenodd" clip-rule="evenodd" d="M10.809 27.0581C17.654 26.1771 22.367 26.2529 29.221 27.0889C29.7174 27.1523 30.1709 27.3718 30.4979 27.7068C30.8249 28.0418 31.0033 28.4698 31 28.9116C31 29.3345 30.835 29.745 30.537 30.0657C30.0176 30.6248 29.4855 31.1746 28.941 31.7149H31.582C31.748 31.5404 31.915 31.3625 32.084 31.1819C32.6772 30.5411 33.0007 29.7394 33 28.9125C33 27.1285 31.522 25.5912 29.495 25.3446C22.479 24.4892 17.575 24.4072 10.52 25.3155C8.472 25.5789 7 27.14 7 28.9363C7 29.7336 7.295 30.522 7.854 31.1607C8.019 31.3493 8.182 31.5343 8.344 31.7157H10.921C10.4144 31.1814 9.92032 30.6381 9.439 30.0859C9.15296 29.7554 8.99866 29.351 9 28.9354C9 27.9866 9.774 27.1911 10.809 27.0581Z" fill="#2D0B0B"/>
<path fill-rule="evenodd" clip-rule="evenodd" d="M20 18.5003C20.7879 18.5003 21.5681 18.3636 22.2961 18.098C23.0241 17.8323 23.6855 17.443 24.2426 16.9522C24.7998 16.4613 25.2417 15.8786 25.5433 15.2373C25.8448 14.596 26 13.9087 26 13.2145C26 12.5204 25.8448 11.833 25.5433 11.1917C25.2417 10.5504 24.7998 9.96773 24.2426 9.47689C23.6855 8.98606 23.0241 8.59671 22.2961 8.33107C21.5681 8.06544 20.7879 7.92872 20 7.92872C18.4087 7.92872 16.8826 8.48561 15.7574 9.47689C14.6321 10.4682 14 11.8126 14 13.2145C14 14.6164 14.6321 15.9609 15.7574 16.9522C16.8826 17.9434 18.4087 18.5003 20 18.5003ZM20 20.2623C22.1217 20.2623 24.1566 19.5197 25.6569 18.198C27.1571 16.8763 28 15.0837 28 13.2145C28 11.3453 27.1571 9.55272 25.6569 8.23102C24.1566 6.90931 22.1217 6.16678 20 6.16678C17.8783 6.16678 15.8434 6.90931 14.3431 8.23102C12.8429 9.55272 12 11.3453 12 13.2145C12 15.0837 12.8429 16.8763 14.3431 18.198C15.8434 19.5197 17.8783 20.2623 20 20.2623Z" fill="#2D0B0B"/>
<path fill-rule="evenodd" clip-rule="evenodd" d="M20 33.4768C29.941 33.4768 38 26.3771 38 17.6194C38 8.86166 29.941 1.76194 20 1.76194C10.059 1.76194 2 8.86166 2 17.6194C2 26.3771 10.059 33.4768 20 33.4768ZM20 35.2387C31.046 35.2387 40 27.3505 40 17.6194C40 7.88819 31.046 0 20 0C8.954 0 0 7.88819 0 17.6194C0 27.3505 8.954 35.2387 20 35.2387Z" fill="#2D0B0B"/>
</svg>
