<svg width="30" height="28" viewBox="0 0 30 28" fill="none" xmlns="http://www.w3.org/2000/svg">
<path d="M0.725815 5.73804C1.19129 4.61518 1.86245 3.59764 2.70174 2.74241C3.54165 1.88462 4.53193 1.20295 5.61874 0.734463C6.74568 0.246742 7.95439 -0.0029008 9.1747 2.54299e-05C10.8867 2.54299e-05 12.557 0.488444 14.0086 1.41101C14.3558 1.63171 14.6857 1.87411 14.9983 2.13822C15.3108 1.87411 15.6407 1.63171 15.988 1.41101C17.4395 0.488444 19.1099 2.54299e-05 20.8219 2.54299e-05C22.0546 2.54299e-05 23.2492 0.246044 24.3778 0.734463C25.4682 1.20479 26.451 1.88134 27.2948 2.74241C28.1352 3.59668 28.8065 4.61445 29.2707 5.73804C29.7534 6.90663 30 8.14758 30 9.4247C30 10.6295 29.7639 11.8849 29.2951 13.162C28.9027 14.2293 28.3401 15.3364 27.6213 16.4543C26.4822 18.2235 24.9161 20.0686 22.9714 21.9391C19.7488 25.0396 16.5575 27.1814 16.4221 27.2683L15.599 27.8182C15.2344 28.0606 14.7656 28.0606 14.401 27.8182L13.578 27.2683C13.4425 27.1778 10.2547 25.0396 7.02862 21.9391C5.08395 20.0686 3.5178 18.2235 2.37878 16.4543C1.65995 15.3364 1.09391 14.2293 0.704979 13.162C0.236176 11.8849 3.62396e-05 10.6295 3.62396e-05 9.4247C-0.00343704 8.14758 0.24312 6.90663 0.725815 5.73804Z" fill="#F03838"/>
</svg>
