<svg width="38" height="38" viewBox="0 0 38 38" fill="none" xmlns="http://www.w3.org/2000/svg">
<circle cx="19" cy="19" r="18.5" fill="#E7F4F4" stroke="#5C449F"/>
<path d="M23.474 13.4078L25.592 15.5248L23.474 13.4078ZM24.836 11.5428L19.109 17.2698C18.8131 17.5653 18.6113 17.9418 18.529 18.3518L18 20.9998L20.648 20.4698C21.058 20.3878 21.434 20.1868 21.73 19.8908L27.457 14.1638C27.6291 13.9917 27.7656 13.7874 27.8588 13.5626C27.9519 13.3377 27.9998 13.0967 27.9998 12.8533C27.9998 12.6099 27.9519 12.3689 27.8588 12.1441C27.7656 11.9192 27.6291 11.7149 27.457 11.5428C27.2849 11.3707 27.0806 11.2342 26.8557 11.1411C26.6309 11.0479 26.3899 11 26.1465 11C25.9031 11 25.6621 11.0479 25.4373 11.1411C25.2124 11.2342 25.0081 11.3707 24.836 11.5428V11.5428Z" stroke="#5B4DB5" stroke-width="2" stroke-linecap="round" stroke-linejoin="round"/>
<path d="M26 22.9998V25.9998C26 26.5302 25.7893 27.039 25.4142 27.414C25.0391 27.7891 24.5304 27.9998 24 27.9998H13C12.4696 27.9998 11.9609 27.7891 11.5858 27.414C11.2107 27.039 11 26.5302 11 25.9998V14.9998C11 14.4694 11.2107 13.9607 11.5858 13.5856C11.9609 13.2105 12.4696 12.9998 13 12.9998H16" stroke="#5B4DB5" stroke-width="2" stroke-linecap="round" stroke-linejoin="round"/>
</svg>
