<svg width="28" height="28" viewBox="0 0 28 28" fill="none" xmlns="http://www.w3.org/2000/svg">
<path d="M26.4444 4.2H21.7778V2.8C21.7778 2.05739 21.45 1.3452 20.8666 0.820101C20.2831 0.294999 19.4918 0 18.6667 0H9.33333C8.50821 0 7.71689 0.294999 7.13345 0.820101C6.55 1.3452 6.22222 2.05739 6.22222 2.8V4.2H1.55556C1.143 4.2 0.747334 4.3475 0.45561 4.61005C0.163887 4.8726 0 5.2287 0 5.6C0 5.9713 0.163887 6.3274 0.45561 6.58995C0.747334 6.8525 1.143 7 1.55556 7H3.11111V25.2C3.11111 25.9426 3.43889 26.6548 4.02234 27.1799C4.60578 27.705 5.3971 28 6.22222 28H21.7778C22.6029 28 23.3942 27.705 23.9777 27.1799C24.5611 26.6548 24.8889 25.9426 24.8889 25.2V7H26.4444C26.857 7 27.2527 6.8525 27.5444 6.58995C27.8361 6.3274 28 5.9713 28 5.6C28 5.2287 27.8361 4.8726 27.5444 4.61005C27.2527 4.3475 26.857 4.2 26.4444 4.2ZM21.7778 7V25.2H6.22222V7H21.7778ZM18.6667 4.2H9.33333V2.8H18.6667V4.2ZM18.6667 9.8H15.5556V22.4H18.6667V9.8ZM12.4444 9.8H9.33333V22.4H12.4444V9.8Z" fill="#5B4DB5"/>
</svg>
