<svg width="30" height="35" viewBox="0 0 30 35" fill="none" xmlns="http://www.w3.org/2000/svg">
<path d="M16.25 13.125C16.25 12.8349 16.1183 12.5567 15.8839 12.3516C15.6495 12.1465 15.3315 12.0312 15 12.0312C14.6685 12.0312 14.3505 12.1465 14.1161 12.3516C13.8817 12.5567 13.75 12.8349 13.75 13.125V16.4062H10C9.66848 16.4062 9.35054 16.5215 9.11612 16.7266C8.8817 16.9317 8.75 17.2099 8.75 17.5C8.75 17.7901 8.8817 18.0683 9.11612 18.2734C9.35054 18.4785 9.66848 18.5938 10 18.5938H13.75V21.875C13.75 22.1651 13.8817 22.4433 14.1161 22.6484C14.3505 22.8535 14.6685 22.9688 15 22.9688C15.3315 22.9688 15.6495 22.8535 15.8839 22.6484C16.1183 22.4433 16.25 22.1651 16.25 21.875V18.5938H20C20.3315 18.5938 20.6495 18.4785 20.8839 18.2734C21.1183 18.0683 21.25 17.7901 21.25 17.5C21.25 17.2099 21.1183 16.9317 20.8839 16.7266C20.6495 16.5215 20.3315 16.4062 20 16.4062H16.25V13.125Z" fill="black"/>
<path d="M0 4.375C0 3.21468 0.526784 2.10188 1.46447 1.28141C2.40215 0.460936 3.67392 0 5 0L25 0C26.3261 0 27.5979 0.460936 28.5355 1.28141C29.4732 2.10188 30 3.21468 30 4.375V30.625C30 31.7853 29.4732 32.8981 28.5355 33.7186C27.5979 34.5391 26.3261 35 25 35H5C3.67392 35 2.40215 34.5391 1.46447 33.7186C0.526784 32.8981 0 31.7853 0 30.625V4.375ZM25 2.1875H5C4.33696 2.1875 3.70107 2.41797 3.23223 2.8282C2.76339 3.23844 2.5 3.79484 2.5 4.375V30.625C2.5 31.2052 2.76339 31.7616 3.23223 32.1718C3.70107 32.582 4.33696 32.8125 5 32.8125H25C25.663 32.8125 26.2989 32.582 26.7678 32.1718C27.2366 31.7616 27.5 31.2052 27.5 30.625V4.375C27.5 3.79484 27.2366 3.23844 26.7678 2.8282C26.2989 2.41797 25.663 2.1875 25 2.1875Z" fill="black"/>
</svg>
