<svg width="28" height="28" viewBox="0 0 28 28" fill="none" xmlns="http://www.w3.org/2000/svg">
<path d="M6.5 2.75V6.5H2.75V2.75H6.5ZM8.375 25.25V21.5C8.375 21.0027 8.17746 20.5258 7.82582 20.1742C7.47419 19.8225 6.99728 19.625 6.5 19.625H2.75C2.25272 19.625 1.77581 19.8225 1.42417 20.1742C1.07254 20.5258 0.875 21.0027 0.875 21.5V25.25C0.875 25.7473 1.07254 26.2242 1.42417 26.5758C1.77581 26.9275 2.25272 27.125 2.75 27.125H6.5C6.99728 27.125 7.47419 26.9275 7.82582 26.5758C8.17746 26.2242 8.375 25.7473 8.375 25.25ZM8.375 15.875V12.125C8.375 11.6277 8.17746 11.1508 7.82582 10.7992C7.47419 10.4475 6.99728 10.25 6.5 10.25H2.75C2.25272 10.25 1.77581 10.4475 1.42417 10.7992C1.07254 11.1508 0.875 11.6277 0.875 12.125V15.875C0.875 16.3723 1.07254 16.8492 1.42417 17.2008C1.77581 17.5525 2.25272 17.75 2.75 17.75H6.5C6.99728 17.75 7.47419 17.5525 7.82582 17.2008C8.17746 16.8492 8.375 16.3723 8.375 15.875ZM8.375 6.5V2.75C8.375 2.25272 8.17746 1.77581 7.82582 1.42417C7.47419 1.07254 6.99728 0.875 6.5 0.875H2.75C2.25272 0.875 1.77581 1.07254 1.42417 1.42417C1.07254 1.77581 0.875 2.25272 0.875 2.75V6.5C0.875 6.99728 1.07254 7.47419 1.42417 7.82582C1.77581 8.17746 2.25272 8.375 2.75 8.375H6.5C6.99728 8.375 7.47419 8.17746 7.82582 7.82582C8.17746 7.47419 8.375 6.99728 8.375 6.5ZM17.75 25.25V21.5C17.75 21.0027 17.5525 20.5258 17.2008 20.1742C16.8492 19.8225 16.3723 19.625 15.875 19.625H12.125C11.6277 19.625 11.1508 19.8225 10.7992 20.1742C10.4475 20.5258 10.25 21.0027 10.25 21.5V25.25C10.25 25.7473 10.4475 26.2242 10.7992 26.5758C11.1508 26.9275 11.6277 27.125 12.125 27.125H15.875C16.3723 27.125 16.8492 26.9275 17.2008 26.5758C17.5525 26.2242 17.75 25.7473 17.75 25.25ZM17.75 15.875V12.125C17.75 11.6277 17.5525 11.1508 17.2008 10.7992C16.8492 10.4475 16.3723 10.25 15.875 10.25H12.125C11.6277 10.25 11.1508 10.4475 10.7992 10.7992C10.4475 11.1508 10.25 11.6277 10.25 12.125V15.875C10.25 16.3723 10.4475 16.8492 10.7992 17.2008C11.1508 17.5525 11.6277 17.75 12.125 17.75H15.875C16.3723 17.75 16.8492 17.5525 17.2008 17.2008C17.5525 16.8492 17.75 16.3723 17.75 15.875ZM17.75 6.5V2.75C17.75 2.25272 17.5525 1.77581 17.2008 1.42417C16.8492 1.07254 16.3723 0.875 15.875 0.875H12.125C11.6277 0.875 11.1508 1.07254 10.7992 1.42417C10.4475 1.77581 10.25 2.25272 10.25 2.75V6.5C10.25 6.99728 10.4475 7.47419 10.7992 7.82582C11.1508 8.17746 11.6277 8.375 12.125 8.375H15.875C16.3723 8.375 16.8492 8.17746 17.2008 7.82582C17.5525 7.47419 17.75 6.99728 17.75 6.5ZM15.875 2.75V6.5H12.125V2.75H15.875ZM25.25 2.75V6.5H21.5V2.75H25.25ZM6.5 12.125V15.875H2.75V12.125H6.5ZM15.875 12.125V15.875H12.125V12.125H15.875ZM25.25 12.125H21.5V15.875H25.25V12.125ZM6.5 21.5V25.25H2.75V21.5H6.5ZM15.875 21.5V25.25H12.125V21.5H15.875ZM25.25 21.5V25.25H21.5V21.5H25.25ZM21.5 0.875C21.0027 0.875 20.5258 1.07254 20.1742 1.42417C19.8225 1.77581 19.625 2.25272 19.625 2.75V6.5C19.625 6.99728 19.8225 7.47419 20.1742 7.82582C20.5258 8.17746 21.0027 8.375 21.5 8.375H25.25C25.7473 8.375 26.2242 8.17746 26.5758 7.82582C26.9275 7.47419 27.125 6.99728 27.125 6.5V2.75C27.125 2.25272 26.9275 1.77581 26.5758 1.42417C26.2242 1.07254 25.7473 0.875 25.25 0.875H21.5ZM19.625 12.125C19.625 11.6277 19.8225 11.1508 20.1742 10.7992C20.5258 10.4475 21.0027 10.25 21.5 10.25H25.25C25.7473 10.25 26.2242 10.4475 26.5758 10.7992C26.9275 11.1508 27.125 11.6277 27.125 12.125V15.875C27.125 16.3723 26.9275 16.8492 26.5758 17.2008C26.2242 17.5525 25.7473 17.75 25.25 17.75H21.5C21.0027 17.75 20.5258 17.5525 20.1742 17.2008C19.8225 16.8492 19.625 16.3723 19.625 15.875V12.125ZM21.5 19.625C21.0027 19.625 20.5258 19.8225 20.1742 20.1742C19.8225 20.5258 19.625 21.0027 19.625 21.5V25.25C19.625 25.7473 19.8225 26.2242 20.1742 26.5758C20.5258 26.9275 21.0027 27.125 21.5 27.125H25.25C25.7473 27.125 26.2242 26.9275 26.5758 26.5758C26.9275 26.2242 27.125 25.7473 27.125 25.25V21.5C27.125 21.0027 26.9275 20.5258 26.5758 20.1742C26.2242 19.8225 25.7473 19.625 25.25 19.625H21.5Z" fill="#5B4DB5"/>
</svg>
