<svg width="30" height="29" viewBox="0 0 30 29" fill="none" xmlns="http://www.w3.org/2000/svg">
<path d="M14.9999 5.15255L13.6556 3.77067C10.4999 0.52692 4.71368 1.6463 2.62493 5.72442C1.6443 7.64255 1.42305 10.4119 3.21368 13.9463C4.93867 17.3494 8.52743 21.4257 14.9999 25.8657C21.4724 21.4257 25.0593 17.3494 26.7862 13.9463C28.5768 10.41 28.3574 7.64255 27.3749 5.72442C25.2862 1.6463 19.4999 0.525045 16.3443 3.7688L14.9999 5.15255ZM14.9999 28.125C-13.7494 9.12755 6.14805 -5.69995 14.6699 2.14317C14.7824 2.2463 14.8931 2.35317 14.9999 2.4638C15.1057 2.35327 15.2158 2.24694 15.3299 2.14505C23.8499 -5.7037 43.7493 9.12567 14.9999 28.125Z" fill="#2D0B0B"/>
</svg>
